<?xml version="1.0" encoding="UTF-8"?>
<svg width="20px" height="20px" viewBox="0 0 20 20" version="1.1" xmlns="http://www.w3.org/2000/svg" xmlns:xlink="http://www.w3.org/1999/xlink">
    <!-- Generator: Sketch 59 (86127) - https://sketch.com -->
    <title>ico_Home</title>
    <desc>Created with Sketch.</desc>
    <g id="Page-2" stroke="none" stroke-width="1" fill="none" fill-rule="evenodd">
        <g id="dlamp_index_Recommendations-Copy" transform="translate(-28.000000, -1433.000000)" fill="#222222" fill-rule="nonzero">
            <g id="Group" transform="translate(0.000000, 1417.000000)">
                <g id="ico_Home" transform="translate(26.000000, 14.000000)">
                    <path d="M21.5,10.5 L12.0158532,2.5 L2.5,10.5 L2.5,21.5 L9.5,21.5 L9.5,15.5 L14.5,15.5 L14.5,21.5 L21.5,21.5 L21.5,10.5 Z M19.5,11.3592757 L19.5,19.5 L16.5,19.5 L16.5,15.5 C16.5,14.3954305 15.6045695,13.5 14.5,13.5 L9.5,13.5 C8.3954305,13.5 7.5,14.3954305 7.5,15.5 L7.5,19.5 L4.5,19.5 L4.5,11.3612503 L12.0135578,5.25500145 L19.5,11.3592757 Z" id="Oval"></path>
                </g>
            </g>
        </g>
    </g>
</svg>