<?xml version="1.0" encoding="UTF-8"?>
<svg width="18px" height="21px" viewBox="0 0 18 21" version="1.1" xmlns="http://www.w3.org/2000/svg" xmlns:xlink="http://www.w3.org/1999/xlink">
    <!-- Generator: Sketch 59 (86127) - https://sketch.com -->
    <title>ico_MyLearning</title>
    <desc>Created with Sketch.</desc>
    <g id="Page-2" stroke="none" stroke-width="1" fill="none" fill-rule="evenodd">
        <g id="dlamp_index_Recommendations-Copy" transform="translate(-104.000000, -1433.000000)">
            <g id="Group" transform="translate(0.000000, 1417.000000)">
                <g id="ico_MyLearning_Selected" transform="translate(101.000000, 14.000000)">
                    <g id="Group" transform="translate(3.500000, 2.500000)">
                        <path d="M15,0 C16.1045695,0 17,0.8954305 17,2 L17,17 C17,18.1045695 16.1045695,19 15,19 L0,19 L0,0 L15,0 Z M5,1 C4.72385763,1 4.5,1.26455901 4.5,1.59090909 L4.5,17.4090909 C4.5,17.735441 4.72385763,18 5,18 C5.27614237,18 5.5,17.735441 5.5,17.4090909 L5.5,1.59090909 C5.5,1.26455901 5.27614237,1 5,1 Z" id="Rectangle" fill="#222222" fill-rule="nonzero"></path>
                        <path d="M4,19 L4,19.5 C4,20.0522847 4.44771525,20.5 5,20.5 C5.55228475,20.5 6,20.0522847 6,19.5 L6,19 C6,18.4477153 5.55228475,18 5,18 C4.44771525,18 4,18.4477153 4,19 Z" id="Line-3-Copy" fill="#777777" fill-rule="nonzero"></path>
                    </g>
                </g>
            </g>
        </g>
    </g>
</svg>