<?xml version="1.0" encoding="UTF-8"?>
<svg width="20px" height="20px" viewBox="0 0 20 20" version="1.1" xmlns="http://www.w3.org/2000/svg" xmlns:xlink="http://www.w3.org/1999/xlink">
    <!-- Generator: Sketch 59 (86127) - https://sketch.com -->
    <title>ico_search</title>
    <desc>Created with Sketch.</desc>
    <g id="Page-2" stroke="none" stroke-width="1" fill="none" fill-rule="evenodd">
        <g id="dlamp_index_Recommendations-Copy" transform="translate(-337.000000, -66.000000)" fill="#222222" fill-rule="nonzero">
            <g id="Group-7" transform="translate(16.000000, 54.000000)">
                <g id="ico_search_thin" transform="translate(319.000000, 10.000000)">
                    <path d="M11,19.5 C15.6944204,19.5 19.5,15.6944204 19.5,11 C19.5,6.30557963 15.6944204,2.5 11,2.5 C6.30557963,2.5 2.5,6.30557963 2.5,11 C2.5,15.6944204 6.30557963,19.5 11,19.5 Z M11,17.5 C7.41014913,17.5 4.5,14.5898509 4.5,11 C4.5,7.41014913 7.41014913,4.5 11,4.5 C14.5898509,4.5 17.5,7.41014913 17.5,11 C17.5,14.5898509 14.5898509,17.5 11,17.5 Z" id="Oval"></path>
                    <path d="M16.0428932,17.4571068 L19.7928932,21.2071068 C20.1834175,21.5976311 20.8165825,21.5976311 21.2071068,21.2071068 C21.5976311,20.8165825 21.5976311,20.1834175 21.2071068,19.7928932 L17.4571068,16.0428932 C17.0665825,15.6523689 16.4334175,15.6523689 16.0428932,16.0428932 C15.6523689,16.4334175 15.6523689,17.0665825 16.0428932,17.4571068 Z" id="Line-2"></path>
                </g>
            </g>
        </g>
    </g>
</svg>