<?xml version="1.0" encoding="UTF-8"?>
<svg width="20px" height="20px" viewBox="0 0 20 20" version="1.1" xmlns="http://www.w3.org/2000/svg" xmlns:xlink="http://www.w3.org/1999/xlink">
    <!-- Generator: Sketch 59 (86127) - https://sketch.com -->
    <title>ico_Books</title>
    <desc>Created with Sketch.</desc>
    <g id="Page-2" stroke="none" stroke-width="1" fill="none" fill-rule="evenodd">
        <g id="dlamp_index_Recommendations-Copy" transform="translate(-178.000000, -1433.000000)" fill="#222222">
            <g id="Group" transform="translate(0.000000, 1417.000000)">
                <g id="ico_Books" transform="translate(176.000000, 14.000000)">
                    <g id="Group-2" transform="translate(2.500000, 2.227607)">
                        <path d="M0,19.2723926 L0,0.272392638 L0.524396089,0.208550614 C3.09657784,-0.0893788345 4.92177914,-0.0680981596 6,0.272392638 C7.15010225,0.635582823 8.31676892,1.13558282 9.5,1.77239264 C10.5,1.10572597 11.6666667,0.605725972 13,0.272392638 C14.3333333,-0.0609406949 16.3333333,-0.0609406949 19,0.272392638 L19,19.2723926 L15.4876862,18.6783431 C14.4876862,18.5116764 13.6584575,18.3763596 13,18.2723926 C11.6830851,18.0644587 10.5164184,18.397792 9.5,19.2723926 C8.49090195,18.3966362 7.32423528,18.0633029 6,18.2723926 L4.12640817,18.5763459 C3.00004083,18.7625625 1.62457144,18.9945781 0,19.2723926 Z M2,16.9039966 L3.51815753,16.6498497 L5.68807485,16.2968667 C7.0541881,16.0811646 8.34536533,16.2782474 9.50297163,16.8718695 C10.6619837,16.2793936 11.9508282,16.0819567 13.3119251,16.2968667 L14.1973844,16.4388221 L17,16.9039966 L17,2.08118916 C15.4423208,1.96885433 14.2608522,2.01873241 13.4850713,2.21267764 C12.3670717,2.49217753 11.411718,2.90161482 10.6094004,3.43649323 L9.60992267,4.10281171 L8.55216339,3.53353027 C7.47646663,2.95459496 6.4249142,2.50392963 5.39773726,2.17955797 C4.81975483,1.9970372 3.73586074,1.94660474 2.20254215,2.05736474 L2,2.07272822 L2,16.9039966 Z" id="Rectangle" fill-rule="nonzero"></path>
                        <path d="M9,3.77239264 L9,17.2723926 C9,17.548535 9.22385763,17.7723926 9.5,17.7723926 C9.77614237,17.7723926 10,17.548535 10,17.2723926 L10,3.77239264 C10,3.49625026 9.77614237,3.27239264 9.5,3.27239264 C9.22385763,3.27239264 9,3.49625026 9,3.77239264 Z" id="Line-4" fill-rule="nonzero"></path>
                    </g>
                </g>
            </g>
        </g>
    </g>
</svg>