<?xml version="1.0" encoding="UTF-8"?>
<svg width="20px" height="20px" viewBox="0 0 20 20" version="1.1" xmlns="http://www.w3.org/2000/svg" xmlns:xlink="http://www.w3.org/1999/xlink">
    <!-- Generator: Sketch 59 (86127) - https://sketch.com -->
    <title>ico_Collections</title>
    <desc>Created with Sketch.</desc>
    <g id="Page-2" stroke="none" stroke-width="1" fill="none" fill-rule="evenodd">
        <g id="dlamp_index_Recommendations-Copy" transform="translate(-328.000000, -1433.000000)" fill="#222222" fill-rule="nonzero">
            <g id="Group" transform="translate(0.000000, 1417.000000)">
                <g id="ico_Collections" transform="translate(326.000000, 14.000000)">
                    <path d="M4.5,2.5 L9.5,2.5 C10.6045695,2.5 11.5,3.3954305 11.5,4.5 L11.5,9.5 C11.5,10.6045695 10.6045695,11.5 9.5,11.5 L4.5,11.5 C3.3954305,11.5 2.5,10.6045695 2.5,9.5 L2.5,4.5 C2.5,3.3954305 3.3954305,2.5 4.5,2.5 Z M4.5,9.5 L9.5,9.5 L9.5,4.5 L4.5,4.5 L4.5,9.5 Z" id="Rectangle"></path>
                    <path d="M14.5,2.5 L19.5,2.5 C20.6045695,2.5 21.5,3.3954305 21.5,4.5 L21.5,9.5 C21.5,10.6045695 20.6045695,11.5 19.5,11.5 L14.5,11.5 C13.3954305,11.5 12.5,10.6045695 12.5,9.5 L12.5,4.5 C12.5,3.3954305 13.3954305,2.5 14.5,2.5 Z M14.5,9.5 L19.5,9.5 L19.5,4.5 L14.5,4.5 L14.5,9.5 Z" id="Rectangle-Copy"></path>
                    <path d="M4.5,12.5 L9.5,12.5 C10.6045695,12.5 11.5,13.3954305 11.5,14.5 L11.5,19.5 C11.5,20.6045695 10.6045695,21.5 9.5,21.5 L4.5,21.5 C3.3954305,21.5 2.5,20.6045695 2.5,19.5 L2.5,14.5 C2.5,13.3954305 3.3954305,12.5 4.5,12.5 Z M4.5,19.5 L9.5,19.5 L9.5,14.5 L4.5,14.5 L4.5,19.5 Z" id="Rectangle-Copy-3"></path>
                    <path d="M14.5,12.5 L19.5,12.5 C20.6045695,12.5 21.5,13.3954305 21.5,14.5 L21.5,19.5 C21.5,20.6045695 20.6045695,21.5 19.5,21.5 L14.5,21.5 C13.3954305,21.5 12.5,20.6045695 12.5,19.5 L12.5,14.5 C12.5,13.3954305 13.3954305,12.5 14.5,12.5 Z M14.5,19.5 L19.5,19.5 L19.5,14.5 L14.5,14.5 L14.5,19.5 Z" id="Rectangle-Copy-2"></path>
                </g>
            </g>
        </g>
    </g>
</svg>