<?xml version="1.0" encoding="UTF-8"?>
<svg width="20px" height="20px" viewBox="0 0 20 20" version="1.1" xmlns="http://www.w3.org/2000/svg" xmlns:xlink="http://www.w3.org/1999/xlink">
    <!-- Generator: Sketch 59 (86127) - https://sketch.com -->
    <title>ico_Books</title>
    <desc>Created with Sketch.</desc>
    <g id="Page-2" stroke="none" stroke-width="1" fill="none" fill-rule="evenodd">
        <g id="dlamp_index_Recommendations-Copy" transform="translate(-178.000000, -1433.000000)" fill="#222222">
            <g id="Group" transform="translate(0.000000, 1417.000000)">
                <g id="ico_Books_Selected" transform="translate(176.000000, 14.000000)">
                    <g id="Group-2-Copy" transform="translate(2.500000, 2.227607)">
                        <path d="M6,0.272392638 C7.15010225,0.635582823 8.31676892,1.13558282 9.5,1.77239264 C10.5,1.10572597 11.6666667,0.605725972 13,0.272392638 C14.3333333,-0.0609406949 16.3333333,-0.0609406949 19,0.272392638 L19,19.2723926 L15.4876862,18.6783431 C14.4876862,18.5116764 13.6584575,18.3763596 13,18.2723926 C11.6830851,18.0644587 10.5164184,18.397792 9.5,19.2723926 C8.49090195,18.3966362 7.32423528,18.0633029 6,18.2723926 L4.12640817,18.5763459 C3.00004083,18.7625625 1.62457144,18.9945781 0,19.2723926 L0,0.272392638 L0.524396089,0.208550614 C3.09657784,-0.0893788345 4.92177914,-0.0680981596 6,0.272392638 Z M9.5,1.77239264 C9.22385763,1.77239264 9,2.03484641 9,2.35859953 L9,17.6861857 C9,18.0099389 9.22385763,18.2723926 9.5,18.2723926 C9.77614237,18.2723926 10,18.0099389 10,17.6861857 L10,2.35859953 C10,2.03484641 9.77614237,1.77239264 9.5,1.77239264 Z" id="Rectangle" fill-rule="nonzero"></path>
                    </g>
                </g>
            </g>
        </g>
    </g>
</svg>