<?xml version="1.0" encoding="UTF-8"?>
<svg width="20px" height="20px" viewBox="0 0 20 20" version="1.1" xmlns="http://www.w3.org/2000/svg" xmlns:xlink="http://www.w3.org/1999/xlink">
    <!-- Generator: Sketch 59 (86127) - https://sketch.com -->
    <title>ico_add</title>
    <desc>Created with Sketch.</desc>
    <g id="Page-2" stroke="none" stroke-width="1" fill="none" fill-rule="evenodd">
        <g id="dlamp_index_Recommendations-Copy" transform="translate(-297.000000, -66.000000)" fill="#222222" fill-rule="nonzero">
            <g id="Group-7" transform="translate(16.000000, 54.000000)">
                <g id="ico_Add" transform="translate(279.000000, 10.000000)">
                    <path d="M11,3.5 L11,20.5 C11,21.0522847 11.4477153,21.5 12,21.5 C12.5522847,21.5 13,21.0522847 13,20.5 L13,3.5 C13,2.94771525 12.5522847,2.5 12,2.5 C11.4477153,2.5 11,2.94771525 11,3.5 Z" id="Line-6"></path>
                    <path d="M20.5,10.5 L3.5,10.5 C2.94771525,10.5 2.5,10.9477153 2.5,11.5 C2.5,12.0522847 2.94771525,12.5 3.5,12.5 L20.5,12.5 C21.0522847,12.5 21.5,12.0522847 21.5,11.5 C21.5,10.9477153 21.0522847,10.5 20.5,10.5 Z" id="Line-6"></path>
                </g>
            </g>
        </g>
    </g>
</svg>