<?xml version="1.0" encoding="UTF-8"?>
<svg width="20px" height="20px" viewBox="0 0 20 20" version="1.1" xmlns="http://www.w3.org/2000/svg" xmlns:xlink="http://www.w3.org/1999/xlink">
    <!-- Generator: Sketch 59 (86127) - https://sketch.com -->
    <title>ico_Events</title>
    <desc>Created with Sketch.</desc>
    <g id="Page-2" stroke="none" stroke-width="1" fill="none" fill-rule="evenodd">
        <g id="dlamp_index_Recommendations-Copy" transform="translate(-253.000000, -1433.000000)" fill="#222222">
            <g id="Group" transform="translate(0.000000, 1417.000000)">
                <g id="ico_Events" transform="translate(251.000000, 14.000000)">
                    <g id="Group" transform="translate(2.500000, 2.500000)">
                        <path d="M2,1.5 L17,1.5 C18.1045695,1.5 19,2.3954305 19,3.5 L19,17 C19,18.1045695 18.1045695,19 17,19 L2,19 C0.8954305,19 0,18.1045695 0,17 L0,3.5 C0,2.3954305 0.8954305,1.5 2,1.5 Z M2,17 L17,17 L17,3.5 L2,3.5 L2,17 Z" id="Rectangle" fill-rule="nonzero"></path>
                        <path d="M4.25,10.25 L5.25,10.25 C5.52614237,10.25 5.75,10.0261424 5.75,9.75 C5.75,9.47385763 5.52614237,9.25 5.25,9.25 L4.25,9.25 C3.97385763,9.25 3.75,9.47385763 3.75,9.75 C3.75,10.0261424 3.97385763,10.25 4.25,10.25 Z" id="Line-Copy-2" fill-rule="nonzero"></path>
                        <path d="M7.25,10.25 L8.25,10.25 C8.52614237,10.25 8.75,10.0261424 8.75,9.75 C8.75,9.47385763 8.52614237,9.25 8.25,9.25 L7.25,9.25 C6.97385763,9.25 6.75,9.47385763 6.75,9.75 C6.75,10.0261424 6.97385763,10.25 7.25,10.25 Z" id="Line-Copy-5" fill-rule="nonzero"></path>
                        <path d="M10.25,10.25 L11.25,10.25 C11.5261424,10.25 11.75,10.0261424 11.75,9.75 C11.75,9.47385763 11.5261424,9.25 11.25,9.25 L10.25,9.25 C9.97385763,9.25 9.75,9.47385763 9.75,9.75 C9.75,10.0261424 9.97385763,10.25 10.25,10.25 Z" id="Line-Copy-6" fill-rule="nonzero"></path>
                        <path d="M13.25,10.25 L14.25,10.25 C14.5261424,10.25 14.75,10.0261424 14.75,9.75 C14.75,9.47385763 14.5261424,9.25 14.25,9.25 L13.25,9.25 C12.9738576,9.25 12.75,9.47385763 12.75,9.75 C12.75,10.0261424 12.9738576,10.25 13.25,10.25 Z" id="Line-Copy-7" fill-rule="nonzero"></path>
                        <path d="M7.25,8.25 L8.25,8.25 C8.52614237,8.25 8.75,8.02614237 8.75,7.75 C8.75,7.47385763 8.52614237,7.25 8.25,7.25 L7.25,7.25 C6.97385763,7.25 6.75,7.47385763 6.75,7.75 C6.75,8.02614237 6.97385763,8.25 7.25,8.25 Z" id="Line-Copy-16" fill-rule="nonzero"></path>
                        <path d="M10.25,8.25 L11.25,8.25 C11.5261424,8.25 11.75,8.02614237 11.75,7.75 C11.75,7.47385763 11.5261424,7.25 11.25,7.25 L10.25,7.25 C9.97385763,7.25 9.75,7.47385763 9.75,7.75 C9.75,8.02614237 9.97385763,8.25 10.25,8.25 Z" id="Line-Copy-15" fill-rule="nonzero"></path>
                        <path d="M13.25,8.25 L14.25,8.25 C14.5261424,8.25 14.75,8.02614237 14.75,7.75 C14.75,7.47385763 14.5261424,7.25 14.25,7.25 L13.25,7.25 C12.9738576,7.25 12.75,7.47385763 12.75,7.75 C12.75,8.02614237 12.9738576,8.25 13.25,8.25 Z" id="Line-Copy-14" fill-rule="nonzero"></path>
                        <path d="M4.25,12.25 L5.25,12.25 C5.52614237,12.25 5.75,12.0261424 5.75,11.75 C5.75,11.4738576 5.52614237,11.25 5.25,11.25 L4.25,11.25 C3.97385763,11.25 3.75,11.4738576 3.75,11.75 C3.75,12.0261424 3.97385763,12.25 4.25,12.25 Z" id="Line-Copy-3" fill-rule="nonzero"></path>
                        <path d="M7.25,12.25 L8.25,12.25 C8.52614237,12.25 8.75,12.0261424 8.75,11.75 C8.75,11.4738576 8.52614237,11.25 8.25,11.25 L7.25,11.25 C6.97385763,11.25 6.75,11.4738576 6.75,11.75 C6.75,12.0261424 6.97385763,12.25 7.25,12.25 Z" id="Line-Copy-10" fill-rule="nonzero"></path>
                        <path d="M10.25,12.25 L11.25,12.25 C11.5261424,12.25 11.75,12.0261424 11.75,11.75 C11.75,11.4738576 11.5261424,11.25 11.25,11.25 L10.25,11.25 C9.97385763,11.25 9.75,11.4738576 9.75,11.75 C9.75,12.0261424 9.97385763,12.25 10.25,12.25 Z" id="Line-Copy-9" fill-rule="nonzero"></path>
                        <path d="M13.25,12.25 L14.25,12.25 C14.5261424,12.25 14.75,12.0261424 14.75,11.75 C14.75,11.4738576 14.5261424,11.25 14.25,11.25 L13.25,11.25 C12.9738576,11.25 12.75,11.4738576 12.75,11.75 C12.75,12.0261424 12.9738576,12.25 13.25,12.25 Z" id="Line-Copy-8" fill-rule="nonzero"></path>
                        <path d="M4.25,14.25 L5.25,14.25 C5.52614237,14.25 5.75,14.0261424 5.75,13.75 C5.75,13.4738576 5.52614237,13.25 5.25,13.25 L4.25,13.25 C3.97385763,13.25 3.75,13.4738576 3.75,13.75 C3.75,14.0261424 3.97385763,14.25 4.25,14.25 Z" id="Line-Copy-4" fill-rule="nonzero"></path>
                        <path d="M7.25,14.25 L8.25,14.25 C8.52614237,14.25 8.75,14.0261424 8.75,13.75 C8.75,13.4738576 8.52614237,13.25 8.25,13.25 L7.25,13.25 C6.97385763,13.25 6.75,13.4738576 6.75,13.75 C6.75,14.0261424 6.97385763,14.25 7.25,14.25 Z" id="Line-Copy-13" fill-rule="nonzero"></path>
                        <path d="M10.25,14.25 L11.25,14.25 C11.5261424,14.25 11.75,14.0261424 11.75,13.75 C11.75,13.4738576 11.5261424,13.25 11.25,13.25 L10.25,13.25 C9.97385763,13.25 9.75,13.4738576 9.75,13.75 C9.75,14.0261424 9.97385763,14.25 10.25,14.25 Z" id="Line-Copy-12" fill-rule="nonzero"></path>
                        <path d="M5,0.5 L5,4.5 C5,4.77614237 5.22385763,5 5.5,5 C5.77614237,5 6,4.77614237 6,4.5 L6,0.5 C6,0.223857625 5.77614237,0 5.5,0 C5.22385763,0 5,0.223857625 5,0.5 Z" id="Line-5" fill-rule="nonzero"></path>
                        <path d="M13,0.5 L13,4.5 C13,4.77614237 13.2238576,5 13.5,5 C13.7761424,5 14,4.77614237 14,4.5 L14,0.5 C14,0.223857625 13.7761424,0 13.5,0 C13.2238576,0 13,0.223857625 13,0.5 Z" id="Line-5-Copy" fill-rule="nonzero"></path>
                    </g>
                </g>
            </g>
        </g>
    </g>
</svg>